<svg width="400" height="300" viewBox="0 0 400 300" xmlns="http://www.w3.org/2000/svg">
  <g transform="matrix(10, 0, 0, 10, 50, 50)" fill="#000000">
    <path d="M4.6 15.66 l-3.8 -9.66 l2.7 0 l2.1 5.3 l2.08 -5.3 l2.7 0 l-3.8 9.66 l-1.98 0 z M0.84 20 l0 -11.62 l2.52 6.42 l0 5.2 l-2.52 0 z M7.84 20 l0 -5.2 l2.52 -6.42 l0 11.62 l-2.52 0 z M14.4 20 l-2.82 -14 l2.58 0 l2.82 14 l-2.58 0 z M17.84 20 l-1.26 -6.26 l1.56 -7.74 l2.56 0 l-2.82 14 l-0.04 0 z"></path>
  </g>
  
  <g transform="matrix(0.5, 0, 0, 0.5, 20, 240)" fill="#000000">
    <path d="M5.62 5.84 q2.78 0 4.09 0.92 t1.31 2.96 q0 1.5 -0.89 2.47 t-2.65 1.29 l4.02 6.52 l-2.06 0 l-3.84 -6.36 l-2.16 0 l0 6.36 l-1.68 0 l0 -14.16 l3.86 0 z ... [rest of path] ..."></path>
  </g>
</svg>